<svg width="327" height="41" viewBox="0 0 327 41" fill="none" xmlns="http://www.w3.org/2000/svg">
<mask id="path-1-inside-1_3877_3071" fill="white">
<path d="M0 0H327V41H0V0Z"/>
</mask>
<path d="M0 0H327V41H0V0Z" fill="white"/>
<path d="M30.4072 28H22.8555V14.4365H30.4072V15.8281H24.4326V20.2163H30.064V21.5894H24.4326V26.6084H30.4072V28ZM44.2212 17.6465C45.3407 17.6465 46.1849 17.9403 46.7539 18.5278C47.3229 19.1092 47.6074 20.0462 47.6074 21.3389V28H46.0859V21.4131C46.0859 20.5905 45.9066 19.9751 45.5479 19.5669C45.1953 19.1525 44.6696 18.9453 43.9707 18.9453C42.9873 18.9453 42.2729 19.2298 41.8276 19.7988C41.3823 20.3678 41.1597 21.2059 41.1597 22.313V28H39.6289V21.4131C39.6289 20.8626 39.5485 20.4049 39.3877 20.04C39.2331 19.6751 38.998 19.403 38.6826 19.2236C38.3734 19.0381 37.9806 18.9453 37.5044 18.9453C36.8302 18.9453 36.2891 19.0845 35.8809 19.3628C35.4727 19.6411 35.1758 20.0555 34.9902 20.606C34.8109 21.1502 34.7212 21.8213 34.7212 22.6191V28H33.1812V17.832H34.4243L34.6562 19.27H34.7397C34.9438 18.9175 35.2005 18.6206 35.5098 18.3794C35.819 18.1382 36.1654 17.9557 36.5488 17.832C36.9323 17.7083 37.3405 17.6465 37.7734 17.6465C38.5465 17.6465 39.1929 17.7918 39.7124 18.0825C40.2381 18.367 40.6185 18.8031 40.8535 19.3906H40.937C41.271 18.8031 41.7287 18.367 42.3101 18.0825C42.8914 17.7918 43.5285 17.6465 44.2212 17.6465ZM54.5747 17.665C55.7869 17.665 56.6868 17.9372 57.2744 18.4814C57.862 19.0257 58.1558 19.8947 58.1558 21.0884V28H57.0332L56.7363 26.4971H56.6621C56.3776 26.8682 56.0807 27.1805 55.7715 27.4341C55.4622 27.6815 55.1035 27.8701 54.6953 28C54.2933 28.1237 53.7985 28.1855 53.2109 28.1855C52.5924 28.1855 52.042 28.0773 51.5596 27.8608C51.0833 27.6444 50.7061 27.3166 50.4277 26.8774C50.1556 26.4383 50.0195 25.8817 50.0195 25.2075C50.0195 24.1932 50.4215 23.4139 51.2256 22.8696C52.0296 22.3254 53.2542 22.0285 54.8994 21.979L56.6528 21.9048V21.2832C56.6528 20.4049 56.4642 19.7896 56.0869 19.437C55.7096 19.0845 55.1777 18.9082 54.4912 18.9082C53.9593 18.9082 53.4521 18.9855 52.9697 19.1401C52.4873 19.2948 52.0296 19.4772 51.5967 19.6875L51.1235 18.5186C51.5812 18.2835 52.1069 18.0825 52.7007 17.9155C53.2944 17.7485 53.9191 17.665 54.5747 17.665ZM56.6343 22.9902L55.085 23.0552C53.8171 23.1047 52.9233 23.3118 52.4038 23.6768C51.8843 24.0417 51.6245 24.5581 51.6245 25.2261C51.6245 25.8075 51.8008 26.2373 52.1533 26.5156C52.5059 26.7939 52.9728 26.9331 53.5542 26.9331C54.4572 26.9331 55.1963 26.6826 55.7715 26.1816C56.3467 25.6807 56.6343 24.9292 56.6343 23.9272V22.9902ZM62.8687 17.832V28H61.3286V17.832H62.8687ZM62.1172 14.0283C62.3708 14.0283 62.5872 14.1118 62.7666 14.2788C62.9521 14.4396 63.0449 14.6932 63.0449 15.0396C63.0449 15.3797 62.9521 15.6333 62.7666 15.8003C62.5872 15.9673 62.3708 16.0508 62.1172 16.0508C61.8512 16.0508 61.6286 15.9673 61.4492 15.8003C61.276 15.6333 61.1895 15.3797 61.1895 15.0396C61.1895 14.6932 61.276 14.4396 61.4492 14.2788C61.6286 14.1118 61.8512 14.0283 62.1172 14.0283ZM67.6836 28H66.1343V13.5645H67.6836V28Z" fill="#D1D1D1"/>
<path d="M287 11.5H305C305.265 11.5 305.52 11.6054 305.707 11.7929C305.895 11.9804 306 12.2348 306 12.5V28.5C306 28.7652 305.895 29.0196 305.707 29.2071C305.52 29.3946 305.265 29.5 305 29.5H287C286.735 29.5 286.48 29.3946 286.293 29.2071C286.105 29.0196 286 28.7652 286 28.5V12.5C286 12.2348 286.105 11.9804 286.293 11.7929C286.48 11.6054 286.735 11.5 287 11.5ZM304 15.738L296.072 22.838L288 15.716V27.5H304V15.738ZM288.511 13.5L296.061 20.162L303.502 13.5H288.511Z" fill="#A8A8A8"/>
<path d="M327 40H0V42H327V40Z" fill="#D1D1D1" mask="url(#path-1-inside-1_3877_3071)"/>
</svg>

