<svg width="18" height="13" viewBox="0 0 18 13" fill="none" xmlns="http://www.w3.org/2000/svg">
<path d="M9.00026 5.25488C9.19969 5.25455 9.39397 5.31645 9.55451 5.43149L17.123 10.8655C17.2215 10.9362 17.3046 11.0251 17.3678 11.1272C17.4309 11.2292 17.4727 11.3423 17.4909 11.46C17.5276 11.6978 17.4656 11.94 17.3186 12.1334C17.1716 12.3267 16.9516 12.4554 16.7071 12.4911C16.4625 12.5267 16.2134 12.4665 16.0145 12.3236L9.00026 7.29262L1.98602 12.3236C1.88754 12.3943 1.7757 12.4455 1.65687 12.4743C1.53803 12.503 1.41455 12.5087 1.29345 12.4911C1.17235 12.4734 1.05602 12.4327 0.951088 12.3714C0.846159 12.31 0.754691 12.2291 0.681906 12.1334C0.609122 12.0376 0.556445 11.9289 0.526885 11.8134C0.497325 11.6978 0.491459 11.5778 0.509623 11.46C0.527789 11.3423 0.569626 11.2292 0.632752 11.1272C0.695876 11.0251 0.779049 10.9362 0.877524 10.8654L8.44602 5.43149C8.60656 5.31645 8.80083 5.25455 9.00026 5.25488Z" fill="#FFFFFF"/>
<path d="M9.00002 0.500001C9.19945 0.499667 9.39372 0.56157 9.55427 0.676604L17.1228 6.11057C17.3216 6.25348 17.454 6.46736 17.4907 6.70514C17.5273 6.94292 17.4654 7.18513 17.3184 7.37849C17.1714 7.57185 16.9514 7.70051 16.7068 7.73618C16.4623 7.77185 16.2131 7.7116 16.0143 7.56868L9.00002 2.53774L1.98577 7.56868C1.78689 7.7116 1.53777 7.77185 1.2932 7.73618C1.04863 7.70051 0.828657 7.57185 0.681662 7.37849C0.534667 7.18513 0.472695 6.94292 0.509379 6.70514C0.546065 6.46736 0.678402 6.25348 0.87728 6.11057L8.44577 0.676604C8.60631 0.561569 8.80059 0.499667 9.00002 0.500001Z" fill="#FFFFFF"/>
</svg>
