<svg width="18" height="7" viewBox="0 0 18 7" fill="none" xmlns="http://www.w3.org/2000/svg">
<path d="M16.5685 6.6667L1.43151 6.6667C1.18446 6.6667 0.947523 6.56785 0.772832 6.39189C0.598141 6.21593 0.5 5.97728 0.5 5.72843C0.5 5.47959 0.598141 5.24093 0.772832 5.06497C0.947523 4.88901 1.18446 4.79016 1.43151 4.79016L16.5685 4.79016C16.8155 4.79016 17.0525 4.88901 17.2272 5.06497C17.4019 5.24093 17.5 5.47959 17.5 5.72843C17.5 5.97728 17.4019 6.21593 17.2272 6.39189C17.0525 6.56785 16.8155 6.6667 16.5685 6.6667Z" fill="#FFA800"/>
<path d="M16.5685 2.20992L1.43151 2.20992C1.18446 2.20992 0.947523 2.11106 0.772832 1.9351C0.598141 1.75914 0.5 1.52049 0.5 1.27165C0.5 1.0228 0.598141 0.784147 0.772832 0.608187C0.947523 0.432227 1.18446 0.333374 1.43151 0.333374L16.5685 0.333374C16.8155 0.333374 17.0525 0.432227 17.2272 0.608187C17.4019 0.784147 17.5 1.0228 17.5 1.27165C17.5 1.52049 17.4019 1.75914 17.2272 1.9351C17.0525 2.11106 16.8155 2.20992 16.5685 2.20992Z" fill="#FFA800"/>
</svg>
