<svg width="20" height="21" viewBox="0 0 20 21" fill="none" xmlns="http://www.w3.org/2000/svg">
<path d="M9 0.343018C13.968 0.343018 18 4.37502 18 9.34302C18 14.311 13.968 18.343 9 18.343C4.032 18.343 0 14.311 0 9.34302C0 4.37502 4.032 0.343018 9 0.343018ZM9 16.343C12.867 16.343 16 13.21 16 9.34302C16 5.47502 12.867 2.34302 9 2.34302C5.132 2.34302 2 5.47502 2 9.34302C2 13.21 5.132 16.343 9 16.343ZM17 15.843L19.6247 18.535C20.0068 18.9269 20.0028 19.5532 19.6158 19.9402L19.5972 19.9588C19.2102 20.3458 18.5839 20.3498 18.192 19.9677L15.5 17.343L17 15.843Z" fill="black"/>
</svg>
