<svg width="42" height="55" viewBox="0 0 42 55" fill="none" xmlns="http://www.w3.org/2000/svg">
<path d="M0.333008 54.8335C0.333008 49.3524 2.51038 44.0957 6.38613 40.22C10.2619 36.3442 15.5185 34.1668 20.9997 34.1668C26.4808 34.1668 31.7375 36.3442 35.6132 40.22C39.489 44.0957 41.6663 49.3524 41.6663 54.8335H36.4997C36.4997 50.7226 34.8666 46.7802 31.9598 43.8733C29.053 40.9665 25.1105 39.3335 20.9997 39.3335C16.8888 39.3335 12.9463 40.9665 10.0395 43.8733C7.13271 46.7802 5.49967 50.7226 5.49967 54.8335H0.333008ZM20.9997 31.5835C12.4359 31.5835 5.49967 24.6472 5.49967 16.0835C5.49967 7.51975 12.4359 0.583496 20.9997 0.583496C29.5634 0.583496 36.4997 7.51975 36.4997 16.0835C36.4997 24.6472 29.5634 31.5835 20.9997 31.5835ZM20.9997 26.4168C26.7088 26.4168 31.333 21.7927 31.333 16.0835C31.333 10.3743 26.7088 5.75016 20.9997 5.75016C15.2905 5.75016 10.6663 10.3743 10.6663 16.0835C10.6663 21.7927 15.2905 26.4168 20.9997 26.4168Z" fill="white"/>
</svg>


